<svg xmlns="http://www.w3.org/2000/svg" viewBox="0 0 32 32">
  <rect width="32" height="32" rx="7" fill="url(#fg)"/>
  <path d="M16 7c-4 6-9 12-9 17a9 9 0 0 0 18 0c0-5-5-11-9-17z" fill="rgba(255,255,255,0.92)"/>
  <path d="M16 12v11" stroke="#2563eb" stroke-width="1.2" stroke-linecap="round"/>
  <path d="M16 17c-2.5-2.5-5.5-3.5-7-2.5 1.5.7 4 2.5 7 5.5" fill="#93c5fd"/>
  <path d="M16 15.5c2.5-3 5.5-4 7-3-1.5.7-4 2.8-7 6" fill="#93c5fd"/>
  <circle cx="16" cy="10.5" r="1.2" fill="#2563eb"/>
  <defs>
    <linearGradient id="fg" x1="0" y1="0" x2="32" y2="32">
      <stop offset="0%" stop-color="#3b82f6"/>
      <stop offset="100%" stop-color="#1d4ed8"/>
    </linearGradient>
  </defs>
</svg>
