<svg xmlns="http://www.w3.org/2000/svg" viewBox="0 0 120 120" fill="none">
  <!-- Background rounded square -->
  <rect x="4" y="4" width="112" height="112" rx="24" fill="#2563eb"/>
  <rect x="4" y="4" width="112" height="112" rx="24" fill="url(#grad)" />
  <!-- Stylized leaf/sprout -->
  <path d="M58 30C44 42 32 56 32 72c0 16 12.5 28 28 28s28-12 28-28c0-16-12-30-26-42" stroke="rgba(255,255,255,0.15)" stroke-width="6" fill="none" stroke-linecap="round"/>
  <!-- Main leaf shape -->
  <path d="M60 38c-10 14-22 28-22 40a22 22 0 0 0 44 0c0-12-12-26-22-40z" fill="rgba(255,255,255,0.92)"/>
  <!-- Center vein -->
  <path d="M60 52v28" stroke="#2563eb" stroke-width="2.5" stroke-linecap="round"/>
  <!-- Left vein -->
  <path d="M60 62c-5-5-12-7-16-5.5 3.5 1.5 9 5 16 12" fill="#93c5fd"/>
  <!-- Right vein -->
  <path d="M60 58c5-6 12-8 16-6.5-3.5 1.5-9 5.5-16 13" fill="#93c5fd"/>
  <!-- Small accent dot -->
  <circle cx="60" cy="48" r="2.5" fill="#2563eb"/>
  <defs>
    <linearGradient id="grad" x1="0" y1="0" x2="120" y2="120">
      <stop offset="0%" stop-color="#3b82f6"/>
      <stop offset="100%" stop-color="#1d4ed8"/>
    </linearGradient>
  </defs>
</svg>
